  0
SECTION
  2
HEADER
  9
$ACADVER
  1
AC1009
  9
$DWGCODEPAGE
  3
undefined
  9
$INSBASE
 10
0.0
 20
0.0
 30
0.0
  9
$EXTMIN
 10
1.000000000000000E+20
 20
1.000000000000000E+20
 30
1.000000000000000E+20
  9
$EXTMAX
 10
-1.000000000000000E+20
 20
-1.000000000000000E+20
 30
-1.000000000000000E+20
  9
$LIMMIN
 10
0.0
 20
0.0
  9
$LIMMAX
 10
12.0
 20
9.0
  9
$ORTHOMODE
 70
     0
  9
$REGENMODE
 70
     1
  9
$FILLMODE
 70
     1
  9
$QTEXTMODE
 70
     0
  9
$MIRRTEXT
 70
     1
  9
$DRAGMODE
 70
     2
  9
$LTSCALE
 40
1.0
  9
$OSMODE
 70
    37
  9
$ATTMODE
 70
     1
  9
$TEXTSIZE
 40
0.2
  9
$TRACEWID
 40
0.05
  9
$TEXTSTYLE
  7
STANDARD
  9
$CLAYER
  8
0
  9
$CELTYPE
  6
BYLAYER
  9
$CECOLOR
 62
   256
  9
$DIMSCALE
 40
1.0
  9
$DIMASZ
 40
0.18
  9
$DIMEXO
 40
0.0625
  9
$DIMDLI
 40
0.38
  9
$DIMRND
 40
0.0
  9
$DIMDLE
 40
0.0
  9
$DIMEXE
 40
0.18
  9
$DIMTP
 40
0.0
  9
$DIMTM
 40
0.0
  9
$DIMTXT
 40
0.18
  9
$DIMCEN
 40
0.09
  9
$DIMTSZ
 40
0.0
  9
$DIMTOL
 70
     0
  9
$DIMLIM
 70
     0
  9
$DIMTIH
 70
     1
  9
$DIMTOH
 70
     1
  9
$DIMSE1
 70
     0
  9
$DIMSE2
 70
     0
  9
$DIMTAD
 70
     0
  9
$DIMZIN
 70
     0
  9
$DIMBLK
  1

  9
$DIMASO
 70
     1
  9
$DIMSHO
 70
     1
  9
$DIMPOST
  1

  9
$DIMAPOST
  1

  9
$DIMALT
 70
     0
  9
$DIMALTD
 70
     2
  9
$DIMALTF
 40
25.4
  9
$DIMLFAC
 40
1.0
  9
$DIMTOFL
 70
     0
  9
$DIMTVP
 40
0.0
  9
$DIMTIX
 70
     0
  9
$DIMSOXD
 70
     0
  9
$DIMSAH
 70
     0
  9
$DIMBLK1
  1

  9
$DIMBLK2
  1

  9
$DIMSTYLE
  2
STANDARD
  9
$DIMCLRD
 70
     0
  9
$DIMCLRE
 70
     0
  9
$DIMCLRT
 70
     0
  9
$DIMTFAC
 40
1.0
  9
$DIMGAP
 40
0.09
  9
$LUNITS
 70
     2
  9
$LUPREC
 70
     4
  9
$SKETCHINC
 40
0.1
  9
$FILLETRAD
 40
0.0
  9
$AUNITS
 70
     0
  9
$AUPREC
 70
     0
  9
$MENU
  1
.
  9
$ELEVATION
 40
0.0
  9
$PELEVATION
 40
0.0
  9
$THICKNESS
 40
0.0
  9
$LIMCHECK
 70
     0
  9
$CHAMFERA
 40
0.0
  9
$CHAMFERB
 40
0.0
  9
$SKPOLY
 70
     0
  9
$TDCREATE
 40
2461292.650968484
  9
$TDUPDATE
 40
2461292.650968553
  9
$TDINDWG
 40
0.0000000116
  9
$TDUSRTIMER
 40
0.0000000116
  9
$USRTIMER
 70
     1
  9
$ANGBASE
 50
0.0
  9
$ANGDIR
 70
     0
  9
$PDMODE
 70
     0
  9
$PDSIZE
 40
0.0
  9
$PLINEWID
 40
0.0
  9
$COORDS
 70
     1
  9
$SPLFRAME
 70
     0
  9
$SPLINETYPE
 70
     6
  9
$SPLINESEGS
 70
     8
  9
$ATTDIA
 70
     0
  9
$ATTREQ
 70
     1
  9
$HANDLING
 70
     1
  9
$HANDSEED
  5
237
  9
$SURFTAB1
 70
     6
  9
$SURFTAB2
 70
     6
  9
$SURFTYPE
 70
     6
  9
$SURFU
 70
     6
  9
$SURFV
 70
     6
  9
$UCSNAME
  2

  9
$UCSORG
 10
0.0
 20
0.0
 30
0.0
  9
$UCSXDIR
 10
1.0
 20
0.0
 30
0.0
  9
$UCSYDIR
 10
0.0
 20
1.0
 30
0.0
  9
$PUCSNAME
  2

  9
$PUCSORG
 10
0.0
 20
0.0
 30
0.0
  9
$PUCSXDIR
 10
1.0
 20
0.0
 30
0.0
  9
$PUCSYDIR
 10
0.0
 20
1.0
 30
0.0
  9
$USERI1
 70
     0
  9
$USERI2
 70
     0
  9
$USERI3
 70
     0
  9
$USERI4
 70
     0
  9
$USERI5
 70
     0
  9
$USERR1
 40
0.0
  9
$USERR2
 40
0.0
  9
$USERR3
 40
0.0
  9
$USERR4
 40
0.0
  9
$USERR5
 40
0.0
  9
$WORLDVIEW
 70
     1
  9
$SHADEDGE
 70
     3
  9
$SHADEDIF
 70
    70
  9
$TILEMODE
 70
     1
  9
$MAXACTVP
 70
    64
  9
$PLIMCHECK
 70
     0
  9
$PEXTMIN
 10
1.000000000000000E+20
 20
1.000000000000000E+20
 30
1.000000000000000E+20
  9
$PEXTMAX
 10
-1.000000000000000E+20
 20
-1.000000000000000E+20
 30
-1.000000000000000E+20
  9
$PLIMMIN
 10
0.0
 20
0.0
  9
$PLIMMAX
 10
12.0
 20
9.0
  9
$UNITMODE
 70
     0
  9
$VISRETAIN
 70
     1
  9
$PLINEGEN
 70
     0
  9
$PSLTSCALE
 70
     1
  0
ENDSEC
  0
SECTION
  2
TABLES
  0
TABLE
  2
VPORT
 70
     1
  0
VPORT
  2
*ACTIVE
 70
     0
 10
0.0
 20
0.0
 11
1.0
 21
1.0
 12
0.0
 22
0.0
 13
0.0
 23
0.0
 14
0.5
 24
0.5
 15
0.5
 25
0.5
 16
0.0
 26
0.0
 36
1.0
 17
0.0
 27
0.0
 37
-1000.0
 40
462.9947371420458
 41
1.981424148606811
 42
50.0
 43
734.2158509206171
 44
811.4931879313355
 50
0.0
 51
0.0
 71
     0
 72
   100
 73
     1
 74
     3
 75
     0
 76
     0
 77
     0
 78
     0
  0
ENDTAB
  0
TABLE
  2
LTYPE
 70
     1
  0
LTYPE
  2
CONTINUOUS
 70
     0
  3
Solid line
 72
    65
 73
     0
 40
0.0
  0
ENDTAB
  0
TABLE
  2
LAYER
 70
     3
  0
LAYER
  2
0
 70
     0
 62
     7
  6
CONTINUOUS
  0
LAYER
  2
PROFILEEDGES
 70
     0
 62
     7
  6
CONTINUOUS
  0
LAYER
  2
SECTIONCUTEDGES
 70
     0
 62
     7
  6
CONTINUOUS
  0
ENDTAB
  0
TABLE
  2
STYLE
 70
     1
  0
STYLE
  2
STANDARD
 70
     0
 40
0.0
 41
1.0
 50
0.0
 71
     0
 42
0.2
  3
txt
  4

  0
ENDTAB
  0
TABLE
  2
VIEW
 70
     0
  0
ENDTAB
  0
TABLE
  2
UCS
 70
     0
  0
ENDTAB
  0
TABLE
  2
APPID
 70
     1
  0
APPID
  2
ACAD
 70
     0
  0
ENDTAB
  0
TABLE
  2
DIMSTYLE
 70
     1
  0
DIMSTYLE
  2
STANDARD
 70
     0
  3

  4

  5

  6

  7

 40
1.0
 41
0.18
 42
0.0625
 43
0.38
 44
0.18
 45
0.0
 46
0.0
 47
0.0
 48
0.0
140
0.18
141
0.09
142
0.0
143
25.4
144
1.0
145
0.0
146
1.0
147
0.09
 71
     0
 72
     0
 73
     1
 74
     1
 75
     0
 76
     0
 77
     0
 78
     0
170
     0
171
     2
172
     0
173
     0
174
     0
175
     0
176
     0
177
     0
178
     0
  0
ENDTAB
  0
ENDSEC
  0
SECTION
  2
BLOCKS
  0
BLOCK
  8
0
  2
$MODEL_SPACE
 70
     0
 10
0.0
 20
0.0
 30
0.0
  3
$MODEL_SPACE
  1

  0
ENDBLK
  5
21
  8
0
  0
BLOCK
 67
     1
  8
0
  2
$PAPER_SPACE
 70
     0
 10
0.0
 20
0.0
 30
0.0
  3
$PAPER_SPACE
  1

  0
ENDBLK
  5
1D
 67
     1
  8
0
  0
ENDSEC
  0
SECTION
  2
ENTITIES
  0
LINE
  5
60
  8
0
 10
223.2865892356637
 20
-219.9225001424717
 30
0.0
 11
-223.2865892356634
 21
-219.9225001424717
 31
0.0
  0
LINE
  5
61
  8
0
 10
-223.2865892356634
 20
-219.9225001424717
 30
0.0
 11
-223.2865892356634
 21
219.9225001424718
 31
0.0
  0
LINE
  5
62
  8
0
 10
-223.2865892356634
 20
219.9225001424718
 30
0.0
 11
223.2865892356637
 21
219.9225001424718
 31
0.0
  0
LINE
  5
63
  8
0
 10
-5.250000003400467
 20
-141.1725000914545
 30
0.0
 11
-5.250000003400467
 21
-91.8033017358954
 31
0.0
  0
LINE
  5
64
  8
0
 10
-39.18996180725574
 20
-91.80330173589542
 30
0.0
 11
-5.250000003400467
 21
-91.8033017358954
 31
0.0
  0
LINE
  5
65
  8
0
 10
-39.18996180725574
 20
-112.8033017495003
 30
0.0
 11
-39.18996180725574
 21
-91.80330173589542
 31
0.0
  0
LINE
  5
66
  8
0
 10
-39.18996180725574
 20
-112.8033017495003
 30
0.0
 11
-23.43996179705224
 21
-112.8033017495003
 31
0.0
  0
LINE
  5
67
  8
0
 10
-23.43996179705224
 20
-112.8033017495003
 30
0.0
 11
-23.43996179705224
 21
-141.1725000914545
 31
0.0
  0
LINE
  5
68
  8
0
 10
-23.43996179705224
 20
-141.1725000914545
 30
0.0
 11
-5.250000003400467
 21
-141.1725000914545
 31
0.0
  0
LINE
  5
69
  8
0
 10
-5.250000003400467
 20
-81.30330172909332
 30
0.0
 11
-5.250000003400467
 21
-52.50629246141015
 31
0.0
  0
LINE
  5
6A
  8
0
 10
-5.250000003400467
 20
-52.50629246141015
 30
0.0
 11
-23.43996179705224
 21
-52.50629246141015
 31
0.0
  0
LINE
  5
6B
  8
0
 10
-23.43996179705224
 20
-52.50629246141015
 30
0.0
 11
-23.43996179705224
 21
-66.48105510278451
 31
0.0
  0
LINE
  5
6C
  8
0
 10
-54.93996181745885
 20
-66.48105510278452
 30
0.0
 11
-23.43996179705224
 21
-66.48105510278451
 31
0.0
  0
LINE
  5
6D
  8
0
 10
-54.93996181745885
 20
-66.48105510278452
 30
0.0
 11
-54.93996181745885
 21
-81.30330172909333
 31
0.0
  0
LINE
  5
6E
  8
0
 10
-54.93996181745885
 20
-81.30330172909333
 30
0.0
 11
-5.250000003400467
 21
-81.30330172909332
 31
0.0
  0
LINE
  5
6F
  8
0
 10
165.5365891982512
 20
-10.5000000068016
 30
0.0
 11
128.7865891744443
 21
-10.5000000068016
 31
0.0
  0
LINE
  5
70
  8
0
 10
128.7865891744443
 20
-10.5000000068016
 30
0.0
 11
128.7865891744443
 21
-28.03152981323372
 31
0.0
  0
LINE
  5
71
  8
0
 10
128.7865891744443
 20
-28.03152981323372
 30
0.0
 11
144.536589184647
 21
-28.03152981323372
 31
0.0
  0
LINE
  5
72
  8
0
 10
144.536589184647
 20
-55.98105509598244
 30
0.0
 11
144.536589184647
 21
-28.03152981323372
 31
0.0
  0
LINE
  5
73
  8
0
 10
165.5365891982512
 20
-55.98105509598244
 30
0.0
 11
144.536589184647
 21
-55.98105509598244
 31
0.0
  0
LINE
  5
74
  8
0
 10
165.5365891982512
 20
-55.98105509598244
 30
0.0
 11
165.5365891982512
 21
-10.5000000068016
 31
0.0
  0
LINE
  5
75
  8
0
 10
5.250000003401604
 20
-141.1725000914545
 30
0.0
 11
5.250000003401604
 21
-91.8033017358954
 31
0.0
  0
LINE
  5
76
  8
0
 10
23.43996179705301
 20
-141.1725000914545
 30
0.0
 11
5.250000003401604
 21
-141.1725000914545
 31
0.0
  0
LINE
  5
77
  8
0
 10
23.43996179705301
 20
-112.8033017495003
 30
0.0
 11
23.43996179705301
 21
-141.1725000914545
 31
0.0
  0
LINE
  5
78
  8
0
 10
39.18996180725649
 20
-112.8033017495003
 30
0.0
 11
23.43996179705301
 21
-112.8033017495003
 31
0.0
  0
LINE
  5
79
  8
0
 10
39.18996180725649
 20
-112.8033017495003
 30
0.0
 11
39.18996180725649
 21
-91.8033017358954
 31
0.0
  0
LINE
  5
7A
  8
0
 10
39.18996180725649
 20
-91.8033017358954
 30
0.0
 11
5.250000003401604
 21
-91.8033017358954
 31
0.0
  0
LINE
  5
7B
  8
0
 10
-5.250000003400469
 20
-172.6725001118611
 30
0.0
 11
-5.250000003400469
 21
-151.6725000982566
 31
0.0
  0
LINE
  5
7C
  8
0
 10
-54.93996181745885
 20
-151.6725000982566
 30
0.0
 11
-5.250000003400469
 21
-151.6725000982566
 31
0.0
  0
LINE
  5
7D
  8
0
 10
-54.93996181745885
 20
-151.6725000982566
 30
0.0
 11
-54.93996181745885
 21
-172.6725001118611
 31
0.0
  0
LINE
  5
7E
  8
0
 10
-54.93996181745885
 20
-172.6725001118611
 30
0.0
 11
-5.250000003400469
 21
-172.6725001118611
 31
0.0
  0
LINE
  5
7F
  8
0
 10
79.9879720259999
 20
-10.5000000068016
 30
0.0
 11
49.68996181405856
 21
-10.5000000068016
 31
0.0
  0
LINE
  5
80
  8
0
 10
49.68996181405856
 20
-28.03152981323372
 30
0.0
 11
49.68996181405856
 21
-10.5000000068016
 31
0.0
  0
LINE
  5
81
  8
0
 10
65.43996182426167
 20
-28.03152981323372
 30
0.0
 11
49.68996181405856
 21
-28.03152981323372
 31
0.0
  0
LINE
  5
82
  8
0
 10
65.43996182426167
 20
-55.98105509598244
 30
0.0
 11
65.43996182426167
 21
-28.03152981323372
 31
0.0
  0
LINE
  5
83
  8
0
 10
79.9879720259999
 20
-55.98105509598244
 30
0.0
 11
65.43996182426167
 21
-55.98105509598244
 31
0.0
  0
LINE
  5
84
  8
0
 10
79.9879720259999
 20
-55.98105509598244
 30
0.0
 11
79.9879720259999
 21
-10.5000000068016
 31
0.0
  0
LINE
  5
85
  8
0
 10
-5.250000003400467
 20
-42.00629245460808
 30
0.0
 11
-5.250000003400847
 21
-10.5000000068016
 31
0.0
  0
LINE
  5
86
  8
0
 10
-5.250000003400847
 20
-10.5000000068016
 30
0.0
 11
-39.18996180725574
 21
-10.5000000068016
 31
0.0
  0
LINE
  5
87
  8
0
 10
-39.18996180725574
 20
-28.03152981323373
 30
0.0
 11
-39.18996180725574
 21
-10.5000000068016
 31
0.0
  0
LINE
  5
88
  8
0
 10
-39.18996180725574
 20
-28.03152981323373
 30
0.0
 11
-23.43996179705224
 21
-28.03152981323372
 31
0.0
  0
LINE
  5
89
  8
0
 10
-23.43996179705224
 20
-28.03152981323372
 30
0.0
 11
-23.43996179705224
 21
-42.00629245460808
 31
0.0
  0
LINE
  5
8A
  8
0
 10
-5.250000003400467
 20
-42.00629245460808
 30
0.0
 11
-23.43996179705224
 21
-42.00629245460808
 31
0.0
  0
LINE
  5
8B
  8
0
 10
118.2865891676415
 20
-10.5000000068016
 30
0.0
 11
90.48797203280196
 21
-10.5000000068016
 31
0.0
  0
LINE
  5
8C
  8
0
 10
90.48797203280196
 20
-42.00629245460808
 30
0.0
 11
90.48797203280196
 21
-10.5000000068016
 31
0.0
  0
LINE
  5
8D
  8
0
 10
90.48797203280196
 20
-42.00629245460808
 30
0.0
 11
102.5365891574387
 21
-42.00629245460808
 31
0.0
  0
LINE
  5
8E
  8
0
 10
102.5365891574387
 20
-42.00629245460808
 30
0.0
 11
102.5365891574387
 21
-28.03152981323372
 31
0.0
  0
LINE
  5
8F
  8
0
 10
102.5365891574387
 20
-28.03152981323372
 30
0.0
 11
118.2865891676415
 21
-28.03152981323372
 31
0.0
  0
LINE
  5
90
  8
0
 10
118.2865891676415
 20
-28.03152981323372
 30
0.0
 11
118.2865891676415
 21
-10.5000000068016
 31
0.0
  0
LINE
  5
91
  8
0
 10
5.250000003401604
 20
-81.30330172909332
 30
0.0
 11
5.250000003401604
 21
-52.50629246141015
 31
0.0
  0
LINE
  5
92
  8
0
 10
54.9399618174596
 20
-81.30330172909332
 30
0.0
 11
5.250000003401604
 21
-81.30330172909332
 31
0.0
  0
LINE
  5
93
  8
0
 10
54.9399618174596
 20
-66.48105510278451
 30
0.0
 11
54.9399618174596
 21
-81.30330172909332
 31
0.0
  0
LINE
  5
94
  8
0
 10
54.9399618174596
 20
-66.48105510278451
 30
0.0
 11
23.43996179705301
 21
-66.48105510278451
 31
0.0
  0
LINE
  5
95
  8
0
 10
23.43996179705301
 20
-52.50629246141015
 30
0.0
 11
23.43996179705301
 21
-66.48105510278451
 31
0.0
  0
LINE
  5
96
  8
0
 10
5.250000003401604
 20
-52.50629246141015
 30
0.0
 11
23.43996179705301
 21
-52.50629246141015
 31
0.0
  0
LINE
  5
97
  8
0
 10
5.250000003401604
 20
-42.00629245460808
 30
0.0
 11
5.250000003401604
 21
-10.5000000068016
 31
0.0
  0
LINE
  5
98
  8
0
 10
5.250000003401604
 20
-42.00629245460808
 30
0.0
 11
23.43996179705301
 21
-42.00629245460808
 31
0.0
  0
LINE
  5
99
  8
0
 10
23.43996179705301
 20
-28.03152981323372
 30
0.0
 11
23.43996179705301
 21
-42.00629245460808
 31
0.0
  0
LINE
  5
9A
  8
0
 10
39.18996180725649
 20
-28.03152981323372
 30
0.0
 11
23.43996179705301
 21
-28.03152981323372
 31
0.0
  0
LINE
  5
9B
  8
0
 10
39.18996180725649
 20
-28.03152981323372
 30
0.0
 11
39.18996180725649
 21
-10.5000000068016
 31
0.0
  0
LINE
  5
9C
  8
0
 10
39.18996180725649
 20
-10.5000000068016
 30
0.0
 11
5.250000003401604
 21
-10.5000000068016
 31
0.0
  0
LINE
  5
9D
  8
0
 10
-5.250000003400848
 20
193.6725001254667
 30
0.0
 11
-5.250000003400848
 21
172.6725001118621
 31
0.0
  0
LINE
  5
9E
  8
0
 10
-5.250000003400848
 20
193.6725001254667
 30
0.0
 11
-23.62889026162905
 21
193.6725001254666
 31
0.0
  0
LINE
  5
9F
  8
0
 10
-23.62889026162905
 20
193.6725001254666
 30
0.0
 11
-34.12889026843113
 21
193.6725001254666
 31
0.0
  0
LINE
  5
A0
  8
0
 10
-34.12889026843113
 20
193.6725001254666
 30
0.0
 11
-90.48797203280205
 21
193.6725001254666
 31
0.0
  0
LINE
  5
A1
  8
0
 10
-90.48797203280205
 20
193.6725001254666
 30
0.0
 11
-100.9879720396041
 21
193.6725001254666
 31
0.0
  0
LINE
  5
A2
  8
0
 10
-165.5365891982516
 20
193.6725001254666
 30
0.0
 11
-165.5365891982516
 21
172.6725001118621
 31
0.0
  0
LINE
  5
A3
  8
0
 10
-165.5365891982516
 20
172.6725001118621
 30
0.0
 11
-134.0365891778451
 21
172.6725001118621
 31
0.0
  0
LINE
  5
A4
  8
0
 10
-134.0365891778451
 20
130.6725000846534
 30
0.0
 11
-134.0365891778451
 21
172.6725001118621
 31
0.0
  0
LINE
  5
A5
  8
0
 10
-176.0365892050537
 20
130.6725000846534
 30
0.0
 11
-134.0365891778451
 21
130.6725000846534
 31
0.0
  0
LINE
  5
A6
  8
0
 10
-176.0365892050537
 20
130.6725000846534
 30
0.0
 11
-176.0365892050537
 21
162.17250010506
 31
0.0
  0
LINE
  5
A7
  8
0
 10
-197.0365892186583
 20
162.17250010506
 30
0.0
 11
-176.0365892050537
 21
162.17250010506
 31
0.0
  0
LINE
  5
A8
  8
0
 10
-197.0365892186583
 20
162.17250010506
 30
0.0
 11
-197.0365892186583
 21
28.03152981323505
 31
0.0
  0
LINE
  5
A9
  8
0
 10
-197.0365892186583
 20
28.03152981323505
 30
0.0
 11
-176.0365892050537
 21
28.03152981323505
 31
0.0
  0
LINE
  5
AA
  8
0
 10
-176.0365892050537
 20
28.03152981323505
 30
0.0
 11
-176.0365892050537
 21
55.98105509598339
 31
0.0
  0
LINE
  5
AB
  8
0
 10
-144.5365891846471
 20
55.98105509598339
 30
0.0
 11
-176.0365892050537
 21
55.98105509598339
 31
0.0
  0
LINE
  5
AC
  8
0
 10
-144.5365891846471
 20
112.8033017495011
 30
0.0
 11
-144.5365891846471
 21
55.98105509598339
 31
0.0
  0
LINE
  5
AD
  8
0
 10
-144.5365891846471
 20
112.8033017495011
 30
0.0
 11
-121.9879720532083
 21
112.8033017495011
 31
0.0
  0
LINE
  5
AE
  8
0
 10
-121.9879720532083
 20
141.1725000914555
 30
0.0
 11
-121.9879720532083
 21
112.8033017495011
 31
0.0
  0
LINE
  5
AF
  8
0
 10
-121.9879720532083
 20
141.1725000914555
 30
0.0
 11
-100.9879720396041
 21
141.1725000914555
 31
0.0
  0
LINE
  5
B0
  8
0
 10
-100.9879720396041
 20
141.1725000914555
 30
0.0
 11
-100.9879720396041
 21
193.6725001254666
 31
0.0
  0
LINE
  5
B1
  8
0
 10
-90.48797203280205
 20
193.6725001254666
 30
0.0
 11
-90.48797203280205
 21
141.1725000914555
 31
0.0
  0
LINE
  5
B2
  8
0
 10
-90.48797203280205
 20
141.1725000914555
 30
0.0
 11
-65.43996182426129
 21
141.1725000914555
 31
0.0
  0
LINE
  5
B3
  8
0
 10
-65.43996182426129
 20
172.6725001118621
 30
0.0
 11
-65.43996182426129
 21
141.1725000914555
 31
0.0
  0
LINE
  5
B4
  8
0
 10
-65.43996182426129
 20
172.6725001118621
 30
0.0
 11
-34.12889026843113
 21
172.6725001118621
 31
0.0
  0
LINE
  5
B5
  8
0
 10
-34.12889026843113
 20
172.6725001118621
 30
0.0
 11
-34.12889026843113
 21
193.6725001254666
 31
0.0
  0
LINE
  5
B6
  8
0
 10
-23.62889026162905
 20
193.6725001254666
 30
0.0
 11
-23.62889026162905
 21
172.6725001118621
 31
0.0
  0
LINE
  5
B7
  8
0
 10
-23.62889026162905
 20
172.6725001118621
 30
0.0
 11
-5.250000003400848
 21
172.6725001118621
 31
0.0
  0
LINE
  5
B8
  8
0
 10
5.250000003401225
 20
130.6725000846534
 30
0.0
 11
5.250000003401225
 21
81.30330172909456
 31
0.0
  0
LINE
  5
B9
  8
0
 10
39.18996180725611
 20
81.30330172909456
 30
0.0
 11
5.250000003401225
 21
81.30330172909456
 31
0.0
  0
LINE
  5
BA
  8
0
 10
39.18996180725611
 20
102.3033017426991
 30
0.0
 11
39.18996180725611
 21
81.30330172909456
 31
0.0
  0
LINE
  5
BB
  8
0
 10
39.18996180725611
 20
102.3033017426991
 30
0.0
 11
23.43996179705263
 21
102.3033017426991
 31
0.0
  0
LINE
  5
BC
  8
0
 10
23.43996179705263
 20
102.3033017426991
 30
0.0
 11
23.43996179705263
 21
130.6725000846534
 31
0.0
  0
LINE
  5
BD
  8
0
 10
23.43996179705263
 20
130.6725000846534
 30
0.0
 11
5.250000003401225
 21
130.6725000846534
 31
0.0
  0
LINE
  5
BE
  8
0
 10
90.48797203280158
 20
0.0000000000004738
 30
0.0
 11
118.2865891676415
 21
0.0000000000004738
 31
0.0
  0
LINE
  5
BF
  8
0
 10
118.2865891676415
 20
17.53152980643298
 30
0.0
 11
118.2865891676415
 21
0.0000000000004738
 31
0.0
  0
LINE
  5
C0
  8
0
 10
102.5365891574387
 20
17.53152980643298
 30
0.0
 11
118.2865891676415
 21
17.53152980643298
 31
0.0
  0
LINE
  5
C1
  8
0
 10
102.5365891574387
 20
31.50629244780733
 30
0.0
 11
102.5365891574387
 21
17.53152980643298
 31
0.0
  0
LINE
  5
C2
  8
0
 10
90.48797203280158
 20
31.50629244780733
 30
0.0
 11
102.5365891574387
 21
31.50629244780733
 31
0.0
  0
LINE
  5
C3
  8
0
 10
90.48797203280158
 20
31.50629244780733
 30
0.0
 11
90.48797203280158
 21
0.0000000000004738
 31
0.0
  0
LINE
  5
C4
  8
0
 10
-5.250000003400847
 20
130.6725000846534
 30
0.0
 11
-5.250000003400847
 21
81.30330172909456
 31
0.0
  0
LINE
  5
C5
  8
0
 10
-23.43996179705263
 20
130.6725000846534
 30
0.0
 11
-5.250000003400847
 21
130.6725000846534
 31
0.0
  0
LINE
  5
C6
  8
0
 10
-23.43996179705263
 20
102.3033017426991
 30
0.0
 11
-23.43996179705263
 21
130.6725000846534
 31
0.0
  0
LINE
  5
C7
  8
0
 10
-39.18996180725611
 20
102.3033017426991
 30
0.0
 11
-23.43996179705263
 21
102.3033017426991
 31
0.0
  0
LINE
  5
C8
  8
0
 10
-39.18996180725611
 20
102.3033017426991
 30
0.0
 11
-39.18996180725611
 21
81.30330172909456
 31
0.0
  0
LINE
  5
C9
  8
0
 10
-39.18996180725611
 20
81.30330172909456
 30
0.0
 11
-5.250000003400847
 21
81.30330172909456
 31
0.0
  0
LINE
  5
CA
  8
0
 10
-5.250000003400847
 20
70.80330172229259
 30
0.0
 11
-5.250000003400847
 21
42.00629245460941
 31
0.0
  0
LINE
  5
CB
  8
0
 10
-54.93996181745922
 20
70.80330172229259
 30
0.0
 11
-5.250000003400847
 21
70.80330172229259
 31
0.0
  0
LINE
  5
CC
  8
0
 10
-54.93996181745922
 20
55.98105509598339
 30
0.0
 11
-54.93996181745922
 21
70.80330172229259
 31
0.0
  0
LINE
  5
CD
  8
0
 10
-54.93996181745922
 20
55.98105509598339
 30
0.0
 11
-23.43996179705263
 21
55.98105509598339
 31
0.0
  0
LINE
  5
CE
  8
0
 10
-23.43996179705263
 20
42.00629245460941
 30
0.0
 11
-23.43996179705263
 21
55.98105509598339
 31
0.0
  0
LINE
  5
CF
  8
0
 10
-5.250000003400847
 20
42.00629245460941
 30
0.0
 11
-23.43996179705263
 21
42.00629245460941
 31
0.0
  0
LINE
  5
D0
  8
0
 10
5.250000003401225
 20
70.80330172229259
 30
0.0
 11
5.250000003401225
 21
42.00629245460941
 31
0.0
  0
LINE
  5
D1
  8
0
 10
5.250000003401225
 20
42.00629245460941
 30
0.0
 11
23.43996179705263
 21
42.00629245460941
 31
0.0
  0
LINE
  5
D2
  8
0
 10
23.43996179705263
 20
42.00629245460941
 30
0.0
 11
23.43996179705263
 21
55.98105509598339
 31
0.0
  0
LINE
  5
D3
  8
0
 10
54.93996181745922
 20
55.98105509598339
 30
0.0
 11
23.43996179705263
 21
55.98105509598339
 31
0.0
  0
LINE
  5
D4
  8
0
 10
54.93996181745922
 20
55.98105509598339
 30
0.0
 11
54.93996181745922
 21
70.80330172229259
 31
0.0
  0
LINE
  5
D5
  8
0
 10
54.93996181745922
 20
70.80330172229259
 30
0.0
 11
5.250000003401225
 21
70.80330172229259
 31
0.0
  0
LINE
  5
D6
  8
0
 10
5.250000003401227
 20
193.6725001254667
 30
0.0
 11
5.250000003401227
 21
172.6725001118621
 31
0.0
  0
LINE
  5
D7
  8
0
 10
23.62889026162906
 20
172.6725001118621
 30
0.0
 11
5.250000003401227
 21
172.6725001118621
 31
0.0
  0
LINE
  5
D8
  8
0
 10
23.62889026162906
 20
193.6725001254667
 30
0.0
 11
23.62889026162906
 21
172.6725001118621
 31
0.0
  0
LINE
  5
D9
  8
0
 10
23.62889026162906
 20
193.6725001254667
 30
0.0
 11
34.12889026843113
 21
193.6725001254667
 31
0.0
  0
LINE
  5
DA
  8
0
 10
34.12889026843113
 20
172.6725001118621
 30
0.0
 11
34.12889026843113
 21
193.6725001254667
 31
0.0
  0
LINE
  5
DB
  8
0
 10
65.4399618242613
 20
172.6725001118621
 30
0.0
 11
34.12889026843113
 21
172.6725001118621
 31
0.0
  0
LINE
  5
DC
  8
0
 10
65.4399618242613
 20
172.6725001118621
 30
0.0
 11
65.4399618242613
 21
141.1725000914555
 31
0.0
  0
LINE
  5
DD
  8
0
 10
90.48797203280198
 20
141.1725000914555
 30
0.0
 11
65.4399618242613
 21
141.1725000914555
 31
0.0
  0
LINE
  5
DE
  8
0
 10
90.48797203280198
 20
193.6725001254667
 30
0.0
 11
90.48797203280198
 21
141.1725000914555
 31
0.0
  0
LINE
  5
DF
  8
0
 10
90.48797203280198
 20
193.6725001254667
 30
0.0
 11
100.987972039604
 21
193.6725001254667
 31
0.0
  0
LINE
  5
E0
  8
0
 10
100.987972039604
 20
141.1725000914555
 30
0.0
 11
100.987972039604
 21
193.6725001254667
 31
0.0
  0
LINE
  5
E1
  8
0
 10
121.9879720532082
 20
141.1725000914555
 30
0.0
 11
100.987972039604
 21
141.1725000914555
 31
0.0
  0
LINE
  5
E2
  8
0
 10
121.9879720532082
 20
141.1725000914555
 30
0.0
 11
121.9879720532082
 21
112.8033017495011
 31
0.0
  0
LINE
  5
E3
  8
0
 10
144.536589184647
 20
112.8033017495011
 30
0.0
 11
121.9879720532082
 21
112.8033017495011
 31
0.0
  0
LINE
  5
E4
  8
0
 10
144.536589184647
 20
112.8033017495011
 30
0.0
 11
144.536589184647
 21
55.98105509598339
 31
0.0
  0
LINE
  5
E5
  8
0
 10
144.536589184647
 20
55.98105509598339
 30
0.0
 11
176.036589205054
 21
55.98105509598339
 31
0.0
  0
LINE
  5
E6
  8
0
 10
176.036589205054
 20
28.03152981323505
 30
0.0
 11
176.036589205054
 21
55.98105509598339
 31
0.0
  0
LINE
  5
E7
  8
0
 10
197.0365892186582
 20
28.03152981323505
 30
0.0
 11
176.036589205054
 21
28.03152981323505
 31
0.0
  0
LINE
  5
E8
  8
0
 10
197.0365892186582
 20
162.1725001050601
 30
0.0
 11
197.0365892186582
 21
28.03152981323505
 31
0.0
  0
LINE
  5
E9
  8
0
 10
197.0365892186582
 20
162.1725001050601
 30
0.0
 11
176.036589205054
 21
162.1725001050601
 31
0.0
  0
LINE
  5
EA
  8
0
 10
176.036589205054
 20
130.6725000846534
 30
0.0
 11
176.036589205054
 21
162.1725001050601
 31
0.0
  0
LINE
  5
EB
  8
0
 10
176.036589205054
 20
130.6725000846534
 30
0.0
 11
134.0365891778449
 21
130.6725000846534
 31
0.0
  0
LINE
  5
EC
  8
0
 10
134.0365891778449
 20
130.6725000846534
 30
0.0
 11
134.036589177845
 21
172.6725001118621
 31
0.0
  0
LINE
  5
ED
  8
0
 10
165.5365891982512
 20
172.6725001118621
 30
0.0
 11
134.036589177845
 21
172.6725001118621
 31
0.0
  0
LINE
  5
EE
  8
0
 10
165.5365891982512
 20
193.6725001254667
 30
0.0
 11
165.5365891982512
 21
172.6725001118621
 31
0.0
  0
LINE
  5
EF
  8
0
 10
34.12889026843113
 20
193.6725001254667
 30
0.0
 11
90.48797203280198
 21
193.6725001254667
 31
0.0
  0
LINE
  5
F0
  8
0
 10
5.250000003401227
 20
193.6725001254667
 30
0.0
 11
23.62889026162906
 21
193.6725001254667
 31
0.0
  0
LINE
  5
F1
  8
0
 10
-5.250000003400847
 20
31.50629244780733
 30
0.0
 11
-5.250000003401225
 21
0.0000000000004738
 31
0.0
  0
LINE
  5
F2
  8
0
 10
-5.250000003400847
 20
31.50629244780733
 30
0.0
 11
-23.43996179705263
 21
31.50629244780733
 31
0.0
  0
LINE
  5
F3
  8
0
 10
-23.43996179705263
 20
17.53152980643298
 30
0.0
 11
-23.43996179705263
 21
31.50629244780733
 31
0.0
  0
LINE
  5
F4
  8
0
 10
-39.18996180725611
 20
17.53152980643298
 30
0.0
 11
-23.43996179705263
 21
17.53152980643298
 31
0.0
  0
LINE
  5
F5
  8
0
 10
-39.18996180725611
 20
17.53152980643298
 30
0.0
 11
-39.18996180725611
 21
0.0000000000004738
 31
0.0
  0
LINE
  5
F6
  8
0
 10
-39.18996180725611
 20
0.0000000000004738
 30
0.0
 11
-5.250000003401225
 21
0.0000000000004738
 31
0.0
  0
LINE
  5
F7
  8
0
 10
128.7865891744435
 20
0.0000000000004738
 30
0.0
 11
165.5365891982512
 21
0.0000000000004738
 31
0.0
  0
LINE
  5
F8
  8
0
 10
165.5365891982512
 20
45.48105508918131
 30
0.0
 11
165.5365891982512
 21
0.0000000000004738
 31
0.0
  0
LINE
  5
F9
  8
0
 10
165.5365891982512
 20
45.48105508918131
 30
0.0
 11
144.536589184647
 21
45.48105508918131
 31
0.0
  0
LINE
  5
FA
  8
0
 10
144.536589184647
 20
45.48105508918131
 30
0.0
 11
144.536589184647
 21
17.53152980643298
 31
0.0
  0
LINE
  5
FB
  8
0
 10
128.7865891744435
 20
17.53152980643298
 30
0.0
 11
144.536589184647
 21
17.53152980643298
 31
0.0
  0
LINE
  5
FC
  8
0
 10
128.7865891744435
 20
0.0000000000004738
 30
0.0
 11
128.7865891744435
 21
17.53152980643298
 31
0.0
  0
LINE
  5
FD
  8
0
 10
49.68996181405819
 20
0.0000000000004738
 30
0.0
 11
79.98797202599951
 21
0.0000000000004738
 31
0.0
  0
LINE
  5
FE
  8
0
 10
79.98797202599951
 20
45.48105508918131
 30
0.0
 11
79.98797202599951
 21
0.0000000000004738
 31
0.0
  0
LINE
  5
FF
  8
0
 10
79.98797202599951
 20
45.48105508918131
 30
0.0
 11
65.43996182426129
 21
45.48105508918131
 31
0.0
  0
LINE
  5
100
  8
0
 10
65.43996182426129
 20
45.48105508918131
 30
0.0
 11
65.43996182426129
 21
17.53152980643298
 31
0.0
  0
LINE
  5
101
  8
0
 10
65.43996182426129
 20
17.53152980643298
 30
0.0
 11
49.68996181405819
 21
17.53152980643298
 31
0.0
  0
LINE
  5
102
  8
0
 10
49.68996181405819
 20
17.53152980643298
 30
0.0
 11
49.68996181405819
 21
0.0000000000004738
 31
0.0
  0
LINE
  5
103
  8
0
 10
-5.250000003400848
 20
162.1725001050601
 30
0.0
 11
-5.250000003400848
 21
141.1725000914555
 31
0.0
  0
LINE
  5
104
  8
0
 10
-54.93996181745922
 20
162.17250010506
 30
0.0
 11
-5.250000003400848
 21
162.1725001050601
 31
0.0
  0
LINE
  5
105
  8
0
 10
-54.93996181745922
 20
141.1725000914555
 30
0.0
 11
-54.93996181745922
 21
162.17250010506
 31
0.0
  0
LINE
  5
106
  8
0
 10
-54.93996181745922
 20
141.1725000914555
 30
0.0
 11
-5.250000003400848
 21
141.1725000914555
 31
0.0
  0
LINE
  5
107
  8
0
 10
5.250000003401225
 20
31.50629244780733
 30
0.0
 11
5.250000003401225
 21
0.0000000000004738
 31
0.0
  0
LINE
  5
108
  8
0
 10
39.18996180725611
 20
0.0000000000004738
 30
0.0
 11
5.250000003401225
 21
0.0000000000004738
 31
0.0
  0
LINE
  5
109
  8
0
 10
39.18996180725611
 20
17.53152980643298
 30
0.0
 11
39.18996180725611
 21
0.0000000000004738
 31
0.0
  0
LINE
  5
10A
  8
0
 10
39.18996180725611
 20
17.53152980643298
 30
0.0
 11
23.43996179705263
 21
17.53152980643298
 31
0.0
  0
LINE
  5
10B
  8
0
 10
23.43996179705263
 20
17.53152980643298
 30
0.0
 11
23.43996179705263
 21
31.50629244780733
 31
0.0
  0
LINE
  5
10C
  8
0
 10
5.250000003401225
 20
31.50629244780733
 30
0.0
 11
23.43996179705263
 21
31.50629244780733
 31
0.0
  0
LINE
  5
10D
  8
0
 10
-134.0365891778451
 20
28.03152981323505
 30
0.0
 11
-134.0365891778451
 21
45.48105508918131
 31
0.0
  0
LINE
  5
10E
  8
0
 10
-113.0365891642405
 20
45.48105508918131
 30
0.0
 11
-113.0365891642405
 21
28.03152981323505
 31
0.0
  0
LINE
  5
10F
  8
0
 10
-128.7865891744433
 20
-10.5000000068016
 30
0.0
 11
-165.5365891982513
 21
-10.5000000068016
 31
0.0
  0
LINE
  5
110
  8
0
 10
-165.5365891982513
 20
-55.98105509598246
 30
0.0
 11
-165.5365891982513
 21
-10.5000000068016
 31
0.0
  0
LINE
  5
111
  8
0
 10
-165.5365891982513
 20
-55.98105509598246
 30
0.0
 11
-144.5365891846468
 21
-55.98105509598246
 31
0.0
  0
LINE
  5
112
  8
0
 10
-144.5365891846468
 20
-55.98105509598246
 30
0.0
 11
-144.5365891846468
 21
-28.03152981323373
 31
0.0
  0
LINE
  5
113
  8
0
 10
-128.7865891744433
 20
-28.03152981323373
 30
0.0
 11
-144.5365891846468
 21
-28.03152981323373
 31
0.0
  0
LINE
  5
114
  8
0
 10
-128.7865891744433
 20
-10.5000000068016
 30
0.0
 11
-128.7865891744433
 21
-28.03152981323373
 31
0.0
  0
LINE
  5
115
  8
0
 10
54.93996181745923
 20
141.1725000914555
 30
0.0
 11
5.250000003401227
 21
141.1725000914555
 31
0.0
  0
LINE
  5
116
  8
0
 10
54.93996181745923
 20
141.1725000914555
 30
0.0
 11
54.93996181745923
 21
162.1725001050601
 31
0.0
  0
LINE
  5
117
  8
0
 10
54.93996181745923
 20
162.1725001050601
 30
0.0
 11
5.250000003401227
 21
162.1725001050601
 31
0.0
  0
LINE
  5
118
  8
0
 10
5.250000003401227
 20
162.1725001050601
 30
0.0
 11
5.250000003401227
 21
141.1725000914555
 31
0.0
  0
LINE
  5
119
  8
0
 10
-134.0365891778451
 20
102.3033017426991
 30
0.0
 11
-121.9879720532083
 21
102.3033017426991
 31
0.0
  0
LINE
  5
11A
  8
0
 10
-134.0365891778451
 20
55.98105509598339
 30
0.0
 11
-134.0365891778451
 21
102.3033017426991
 31
0.0
  0
LINE
  5
11B
  8
0
 10
-134.0365891778451
 20
55.98105509598339
 30
0.0
 11
-102.5365891574385
 21
55.98105509598339
 31
0.0
  0
LINE
  5
11C
  8
0
 10
-102.5365891574385
 20
55.98105509598339
 30
0.0
 11
-102.5365891574385
 21
42.00629245460941
 31
0.0
  0
LINE
  5
11D
  8
0
 10
-102.5365891574385
 20
42.00629245460941
 30
0.0
 11
-90.48797203280168
 21
42.00629245460941
 31
0.0
  0
LINE
  5
11E
  8
0
 10
-90.48797203280168
 20
55.98105509598339
 30
0.0
 11
-90.48797203280168
 21
42.00629245460941
 31
0.0
  0
LINE
  5
11F
  8
0
 10
-65.43996182426129
 20
55.98105509598339
 30
0.0
 11
-90.48797203280168
 21
55.98105509598339
 31
0.0
  0
LINE
  5
120
  8
0
 10
-65.43996182426129
 20
81.30330172909456
 30
0.0
 11
-65.43996182426129
 21
55.98105509598339
 31
0.0
  0
LINE
  5
121
  8
0
 10
-65.43996182426129
 20
81.30330172909456
 30
0.0
 11
-49.68996181405819
 21
81.30330172909456
 31
0.0
  0
LINE
  5
122
  8
0
 10
-49.68996181405819
 20
102.3033017426991
 30
0.0
 11
-49.68996181405819
 21
81.30330172909456
 31
0.0
  0
LINE
  5
123
  8
0
 10
-65.43996182426129
 20
102.3033017426991
 30
0.0
 11
-49.68996181405819
 21
102.3033017426991
 31
0.0
  0
LINE
  5
124
  8
0
 10
-65.43996182426129
 20
130.6725000846534
 30
0.0
 11
-65.43996182426129
 21
102.3033017426991
 31
0.0
  0
LINE
  5
125
  8
0
 10
-111.4879720464062
 20
130.6725000846534
 30
0.0
 11
-65.43996182426129
 21
130.6725000846534
 31
0.0
  0
LINE
  5
126
  8
0
 10
-111.4879720464062
 20
130.6725000846534
 30
0.0
 11
-111.4879720464062
 21
112.8033017495011
 31
0.0
  0
LINE
  5
127
  8
0
 10
-111.4879720464062
 20
112.8033017495011
 30
0.0
 11
-79.9879720259996
 21
112.8033017495011
 31
0.0
  0
LINE
  5
128
  8
0
 10
-79.9879720259996
 20
112.8033017495011
 30
0.0
 11
-79.9879720259996
 21
70.80330172229259
 31
0.0
  0
LINE
  5
129
  8
0
 10
-121.9879720532083
 20
70.80330172229259
 30
0.0
 11
-79.9879720259996
 21
70.80330172229259
 31
0.0
  0
LINE
  5
12A
  8
0
 10
-121.9879720532083
 20
102.3033017426991
 30
0.0
 11
-121.9879720532083
 21
70.80330172229259
 31
0.0
  0
LINE
  5
12B
  8
0
 10
-49.68996181405782
 20
-112.8033017495003
 30
0.0
 11
-49.68996181405782
 21
-91.80330173589542
 31
0.0
  0
LINE
  5
12C
  8
0
 10
-65.43996182426093
 20
-91.80330173589542
 30
0.0
 11
-49.68996181405782
 21
-91.80330173589542
 31
0.0
  0
LINE
  5
12D
  8
0
 10
-65.43996182426093
 20
-91.80330173589542
 30
0.0
 11
-65.43996182426093
 21
-66.48105510278452
 31
0.0
  0
LINE
  5
12E
  8
0
 10
-65.43996182426093
 20
-66.48105510278452
 30
0.0
 11
-90.48797203280132
 21
-66.48105510278452
 31
0.0
  0
LINE
  5
12F
  8
0
 10
-90.48797203280132
 20
-66.48105510278452
 30
0.0
 11
-90.48797203280132
 21
-52.50629246141016
 31
0.0
  0
LINE
  5
130
  8
0
 10
-102.5365891574381
 20
-52.50629246141016
 30
0.0
 11
-90.48797203280132
 21
-52.50629246141016
 31
0.0
  0
LINE
  5
131
  8
0
 10
-102.5365891574381
 20
-66.48105510278452
 30
0.0
 11
-102.5365891574381
 21
-52.50629246141016
 31
0.0
  0
LINE
  5
132
  8
0
 10
-134.0365891778447
 20
-66.48105510278452
 30
0.0
 11
-102.5365891574381
 21
-66.48105510278452
 31
0.0
  0
LINE
  5
133
  8
0
 10
-134.0365891778447
 20
-66.48105510278452
 30
0.0
 11
-134.0365891778447
 21
-112.8033017495003
 31
0.0
  0
LINE
  5
134
  8
0
 10
-134.0365891778447
 20
-112.8033017495003
 30
0.0
 11
-121.9879720532079
 21
-112.8033017495003
 31
0.0
  0
LINE
  5
135
  8
0
 10
-121.9879720532079
 20
-112.8033017495003
 30
0.0
 11
-121.9879720532079
 21
-81.30330172909333
 31
0.0
  0
LINE
  5
136
  8
0
 10
-121.9879720532079
 20
-81.30330172909333
 30
0.0
 11
-79.98797202599924
 21
-81.30330172909333
 31
0.0
  0
LINE
  5
137
  8
0
 10
-79.98797202599924
 20
-123.3033017563024
 30
0.0
 11
-79.98797202599924
 21
-81.30330172909333
 31
0.0
  0
LINE
  5
138
  8
0
 10
-111.4879720464058
 20
-123.3033017563024
 30
0.0
 11
-79.98797202599924
 21
-123.3033017563024
 31
0.0
  0
LINE
  5
139
  8
0
 10
-111.4879720464058
 20
-141.1725000914545
 30
0.0
 11
-111.4879720464058
 21
-123.3033017563024
 31
0.0
  0
LINE
  5
13A
  8
0
 10
-111.4879720464058
 20
-141.1725000914545
 30
0.0
 11
-65.43996182426093
 21
-141.1725000914545
 31
0.0
  0
LINE
  5
13B
  8
0
 10
-65.43996182426093
 20
-141.1725000914545
 30
0.0
 11
-65.43996182426093
 21
-112.8033017495003
 31
0.0
  0
LINE
  5
13C
  8
0
 10
-65.43996182426093
 20
-112.8033017495003
 30
0.0
 11
-49.68996181405782
 21
-112.8033017495003
 31
0.0
  0
LINE
  5
13D
  8
0
 10
-65.43996182426129
 20
17.53152980643298
 30
0.0
 11
-49.68996181405819
 21
17.53152980643298
 31
0.0
  0
LINE
  5
13E
  8
0
 10
-65.43996182426129
 20
45.48105508918131
 30
0.0
 11
-65.43996182426129
 21
17.53152980643298
 31
0.0
  0
LINE
  5
13F
  8
0
 10
-79.9879720259996
 20
45.48105508918131
 30
0.0
 11
-65.43996182426129
 21
45.48105508918131
 31
0.0
  0
LINE
  5
140
  8
0
 10
-79.9879720259996
 20
45.48105508918131
 30
0.0
 11
-79.9879720259996
 21
0.0000000000004738
 31
0.0
  0
LINE
  5
141
  8
0
 10
-79.9879720259996
 20
0.0000000000004738
 30
0.0
 11
-49.68996181405819
 21
0.0000000000004738
 31
0.0
  0
LINE
  5
142
  8
0
 10
-49.68996181405819
 20
17.53152980643298
 30
0.0
 11
-49.68996181405819
 21
0.0000000000004738
 31
0.0
  0
LINE
  5
143
  8
0
 10
-165.5365891982516
 20
141.1725000914555
 30
0.0
 11
-144.5365891846471
 21
141.1725000914555
 31
0.0
  0
LINE
  5
144
  8
0
 10
-144.5365891846471
 20
162.17250010506
 30
0.0
 11
-144.5365891846471
 21
141.1725000914555
 31
0.0
  0
LINE
  5
145
  8
0
 10
-165.5365891982516
 20
162.17250010506
 30
0.0
 11
-144.5365891846471
 21
162.17250010506
 31
0.0
  0
LINE
  5
146
  8
0
 10
-165.5365891982516
 20
162.17250010506
 30
0.0
 11
-165.5365891982516
 21
141.1725000914555
 31
0.0
  0
LINE
  5
147
  8
0
 10
111.4879720464061
 20
130.6725000846534
 30
0.0
 11
65.43996182426129
 21
130.6725000846534
 31
0.0
  0
LINE
  5
148
  8
0
 10
65.43996182426129
 20
130.6725000846534
 30
0.0
 11
65.43996182426129
 21
102.3033017426991
 31
0.0
  0
LINE
  5
149
  8
0
 10
65.43996182426129
 20
102.3033017426991
 30
0.0
 11
49.68996181405819
 21
102.3033017426991
 31
0.0
  0
LINE
  5
14A
  8
0
 10
49.68996181405819
 20
102.3033017426991
 30
0.0
 11
49.68996181405819
 21
81.30330172909456
 31
0.0
  0
LINE
  5
14B
  8
0
 10
65.43996182426129
 20
81.30330172909456
 30
0.0
 11
49.68996181405819
 21
81.30330172909456
 31
0.0
  0
LINE
  5
14C
  8
0
 10
65.43996182426129
 20
81.30330172909456
 30
0.0
 11
65.43996182426129
 21
55.98105509598339
 31
0.0
  0
LINE
  5
14D
  8
0
 10
65.43996182426129
 20
55.98105509598339
 30
0.0
 11
90.48797203280158
 21
55.98105509598339
 31
0.0
  0
LINE
  5
14E
  8
0
 10
90.48797203280158
 20
55.98105509598339
 30
0.0
 11
90.48797203280158
 21
42.00629245460941
 31
0.0
  0
LINE
  5
14F
  8
0
 10
102.5365891574387
 20
42.00629245460941
 30
0.0
 11
90.48797203280158
 21
42.00629245460941
 31
0.0
  0
LINE
  5
150
  8
0
 10
102.5365891574387
 20
55.98105509598339
 30
0.0
 11
102.5365891574387
 21
42.00629245460941
 31
0.0
  0
LINE
  5
151
  8
0
 10
134.0365891778449
 20
55.98105509598339
 30
0.0
 11
102.5365891574387
 21
55.98105509598339
 31
0.0
  0
LINE
  5
152
  8
0
 10
134.0365891778449
 20
55.98105509598339
 30
0.0
 11
134.0365891778449
 21
102.3033017426991
 31
0.0
  0
LINE
  5
153
  8
0
 10
134.0365891778449
 20
102.3033017426991
 30
0.0
 11
121.9879720532082
 21
102.3033017426991
 31
0.0
  0
LINE
  5
154
  8
0
 10
121.9879720532082
 20
102.3033017426991
 30
0.0
 11
121.9879720532082
 21
70.80330172229259
 31
0.0
  0
LINE
  5
155
  8
0
 10
121.9879720532082
 20
70.80330172229259
 30
0.0
 11
79.98797202599951
 21
70.80330172229259
 31
0.0
  0
LINE
  5
156
  8
0
 10
79.98797202599951
 20
112.8033017495011
 30
0.0
 11
79.98797202599951
 21
70.80330172229259
 31
0.0
  0
LINE
  5
157
  8
0
 10
111.4879720464061
 20
112.8033017495011
 30
0.0
 11
79.98797202599951
 21
112.8033017495011
 31
0.0
  0
LINE
  5
158
  8
0
 10
111.4879720464061
 20
130.6725000846534
 30
0.0
 11
111.4879720464061
 21
112.8033017495011
 31
0.0
  0
LINE
  5
159
  8
0
 10
-134.0365891778447
 20
-38.5315298200358
 30
0.0
 11
-134.0365891778447
 21
-55.98105509598246
 31
0.0
  0
LINE
  5
15A
  8
0
 10
-113.0365891642402
 20
-55.98105509598246
 30
0.0
 11
-113.0365891642402
 21
-38.5315298200358
 31
0.0
  0
LINE
  5
15B
  8
0
 10
54.93996181745922
 20
130.6725000846534
 30
0.0
 11
33.93996180385469
 21
130.6725000846534
 31
0.0
  0
LINE
  5
15C
  8
0
 10
33.93996180385469
 20
112.8033017495011
 30
0.0
 11
33.93996180385469
 21
130.6725000846534
 31
0.0
  0
LINE
  5
15D
  8
0
 10
54.93996181745922
 20
112.8033017495011
 30
0.0
 11
33.93996180385469
 21
112.8033017495011
 31
0.0
  0
LINE
  5
15E
  8
0
 10
54.93996181745922
 20
112.8033017495011
 30
0.0
 11
54.93996181745922
 21
130.6725000846534
 31
0.0
  0
LINE
  5
15F
  8
0
 10
-90.48797203280132
 20
-42.00629245460809
 30
0.0
 11
-90.48797203280132
 21
-10.5000000068016
 31
0.0
  0
LINE
  5
160
  8
0
 10
-90.48797203280132
 20
-10.5000000068016
 30
0.0
 11
-118.2865891676412
 21
-10.5000000068016
 31
0.0
  0
LINE
  5
161
  8
0
 10
-118.2865891676412
 20
-28.03152981323373
 30
0.0
 11
-118.2865891676412
 21
-10.5000000068016
 31
0.0
  0
LINE
  5
162
  8
0
 10
-102.5365891574381
 20
-28.03152981323373
 30
0.0
 11
-118.2865891676412
 21
-28.03152981323373
 31
0.0
  0
LINE
  5
163
  8
0
 10
-102.5365891574381
 20
-42.00629245460809
 30
0.0
 11
-102.5365891574381
 21
-28.03152981323373
 31
0.0
  0
LINE
  5
164
  8
0
 10
-90.48797203280132
 20
-42.00629245460809
 30
0.0
 11
-102.5365891574381
 21
-42.00629245460809
 31
0.0
  0
LINE
  5
165
  8
0
 10
-207.5365892254603
 20
172.6725001118621
 30
0.0
 11
-207.53658922546
 21
-183.1725001186632
 31
0.0
  0
LINE
  5
166
  8
0
 10
-207.53658922546
 20
-183.1725001186632
 30
0.0
 11
-207.5365892254603
 21
-204.1725001322684
 31
0.0
  0
LINE
  5
167
  8
0
 10
-207.5365892254603
 20
-204.1725001322684
 30
0.0
 11
-176.0365892050534
 21
-204.1725001322685
 31
0.0
  0
LINE
  5
168
  8
0
 10
-176.0365892050534
 20
-204.1725001322685
 30
0.0
 11
-165.5365891982513
 21
-204.1725001322677
 31
0.0
  0
LINE
  5
169
  8
0
 10
-100.9879720396038
 20
-204.1725001322677
 30
0.0
 11
-90.48797203280171
 21
-204.1725001322677
 31
0.0
  0
LINE
  5
16A
  8
0
 10
-90.48797203280171
 20
-204.1725001322677
 30
0.0
 11
-34.12889026843074
 21
-204.1725001322676
 31
0.0
  0
LINE
  5
16B
  8
0
 10
-34.12889026843074
 20
-204.1725001322676
 30
0.0
 11
-23.62889026162867
 21
-204.1725001322676
 31
0.0
  0
LINE
  5
16C
  8
0
 10
-23.62889026162867
 20
-204.1725001322676
 30
0.0
 11
-5.250000003400469
 21
-204.1725001322677
 31
0.0
  0
LINE
  5
16D
  8
0
 10
-5.250000003400469
 20
-204.1725001322677
 30
0.0
 11
5.250000003401605
 21
-204.1725001322677
 31
0.0
  0
LINE
  5
16E
  8
0
 10
5.250000003401605
 20
-204.1725001322677
 30
0.0
 11
23.62889026162944
 21
-204.1725001322677
 31
0.0
  0
LINE
  5
16F
  8
0
 10
23.62889026162944
 20
-204.1725001322677
 30
0.0
 11
34.12889026843151
 21
-204.1725001322677
 31
0.0
  0
LINE
  5
170
  8
0
 10
34.12889026843151
 20
-204.1725001322677
 30
0.0
 11
90.48797203280235
 21
-204.1725001322676
 31
0.0
  0
LINE
  5
171
  8
0
 10
90.48797203280235
 20
-204.1725001322676
 30
0.0
 11
100.987972039604
 21
-204.1725001322676
 31
0.0
  0
LINE
  5
172
  8
0
 10
165.5365891982512
 20
-204.1725001322676
 30
0.0
 11
176.036589205054
 21
-204.1725001322684
 31
0.0
  0
LINE
  5
173
  8
0
 10
176.036589205054
 20
-204.1725001322684
 30
0.0
 11
207.5365892254603
 21
-204.1725001322685
 31
0.0
  0
LINE
  5
174
  8
0
 10
207.536589225461
 20
-183.1725001186631
 30
0.0
 11
207.5365892254603
 21
-204.1725001322685
 31
0.0
  0
LINE
  5
175
  8
0
 10
207.536589225461
 20
-183.1725001186631
 30
0.0
 11
176.036589205054
 21
-183.1725001186631
 31
0.0
  0
LINE
  5
176
  8
0
 10
176.036589205054
 20
-183.1725001186631
 30
0.0
 11
176.036589205054
 21
-204.1725001322684
 31
0.0
  0
LINE
  5
177
  8
0
 10
165.5365891982512
 20
-204.1725001322676
 30
0.0
 11
165.5365891982512
 21
-183.1725001186631
 31
0.0
  0
LINE
  5
178
  8
0
 10
165.5365891982512
 20
-183.1725001186631
 30
0.0
 11
134.0365891778457
 21
-183.1725001186631
 31
0.0
  0
LINE
  5
179
  8
0
 10
134.0365891778457
 20
-141.1725000914545
 30
0.0
 11
134.0365891778457
 21
-183.1725001186631
 31
0.0
  0
LINE
  5
17A
  8
0
 10
176.036589205054
 20
-141.1725000914545
 30
0.0
 11
134.0365891778457
 21
-141.1725000914545
 31
0.0
  0
LINE
  5
17B
  8
0
 10
176.036589205054
 20
-141.1725000914545
 30
0.0
 11
176.036589205054
 21
-172.6725001118611
 31
0.0
  0
LINE
  5
17C
  8
0
 10
197.0365892186582
 20
-172.6725001118611
 30
0.0
 11
176.036589205054
 21
-172.6725001118611
 31
0.0
  0
LINE
  5
17D
  8
0
 10
197.0365892186582
 20
-172.6725001118611
 30
0.0
 11
197.0365892186582
 21
-38.53152982003579
 31
0.0
  0
LINE
  5
17E
  8
0
 10
197.0365892186582
 20
-38.53152982003579
 30
0.0
 11
176.036589205054
 21
-38.53152982003579
 31
0.0
  0
LINE
  5
17F
  8
0
 10
176.036589205054
 20
-38.53152982003579
 30
0.0
 11
176.036589205054
 21
-66.48105510278451
 31
0.0
  0
LINE
  5
180
  8
0
 10
144.536589184647
 20
-66.48105510278451
 30
0.0
 11
176.036589205054
 21
-66.48105510278451
 31
0.0
  0
LINE
  5
181
  8
0
 10
144.536589184647
 20
-123.3033017563024
 30
0.0
 11
144.536589184647
 21
-66.48105510278451
 31
0.0
  0
LINE
  5
182
  8
0
 10
144.536589184647
 20
-123.3033017563024
 30
0.0
 11
121.9879720532082
 21
-123.3033017563024
 31
0.0
  0
LINE
  5
183
  8
0
 10
121.9879720532082
 20
-151.6725000982565
 30
0.0
 11
121.9879720532082
 21
-123.3033017563024
 31
0.0
  0
LINE
  5
184
  8
0
 10
121.9879720532082
 20
-151.6725000982565
 30
0.0
 11
100.987972039604
 21
-151.6725000982565
 31
0.0
  0
LINE
  5
185
  8
0
 10
100.987972039604
 20
-151.6725000982565
 30
0.0
 11
100.987972039604
 21
-204.1725001322676
 31
0.0
  0
LINE
  5
186
  8
0
 10
90.48797203280235
 20
-204.1725001322676
 30
0.0
 11
90.48797203280235
 21
-151.6725000982565
 31
0.0
  0
LINE
  5
187
  8
0
 10
90.48797203280235
 20
-151.6725000982565
 30
0.0
 11
65.43996182426167
 21
-151.6725000982565
 31
0.0
  0
LINE
  5
188
  8
0
 10
65.43996182426167
 20
-183.1725001186631
 30
0.0
 11
65.43996182426167
 21
-151.6725000982565
 31
0.0
  0
LINE
  5
189
  8
0
 10
65.43996182426167
 20
-183.1725001186631
 30
0.0
 11
34.12889026843151
 21
-183.1725001186632
 31
0.0
  0
LINE
  5
18A
  8
0
 10
34.12889026843151
 20
-183.1725001186632
 30
0.0
 11
34.12889026843151
 21
-204.1725001322677
 31
0.0
  0
LINE
  5
18B
  8
0
 10
23.62889026162944
 20
-204.1725001322677
 30
0.0
 11
23.62889026162944
 21
-183.1725001186632
 31
0.0
  0
LINE
  5
18C
  8
0
 10
23.62889026162944
 20
-183.1725001186632
 30
0.0
 11
5.250000003401605
 21
-183.1725001186632
 31
0.0
  0
LINE
  5
18D
  8
0
 10
5.250000003401605
 20
-204.1725001322677
 30
0.0
 11
5.250000003401605
 21
-183.1725001186632
 31
0.0
  0
LINE
  5
18E
  8
0
 10
-5.250000003400469
 20
-204.1725001322677
 30
0.0
 11
-5.250000003400469
 21
-183.1725001186632
 31
0.0
  0
LINE
  5
18F
  8
0
 10
-23.62889026162867
 20
-183.1725001186631
 30
0.0
 11
-5.250000003400469
 21
-183.1725001186632
 31
0.0
  0
LINE
  5
190
  8
0
 10
-23.62889026162867
 20
-204.1725001322676
 30
0.0
 11
-23.62889026162867
 21
-183.1725001186631
 31
0.0
  0
LINE
  5
191
  8
0
 10
-34.12889026843074
 20
-183.1725001186631
 30
0.0
 11
-34.12889026843074
 21
-204.1725001322676
 31
0.0
  0
LINE
  5
192
  8
0
 10
-65.43996182426093
 20
-183.1725001186632
 30
0.0
 11
-34.12889026843074
 21
-183.1725001186631
 31
0.0
  0
LINE
  5
193
  8
0
 10
-65.43996182426093
 20
-183.1725001186632
 30
0.0
 11
-65.43996182426093
 21
-151.6725000982566
 31
0.0
  0
LINE
  5
194
  8
0
 10
-90.48797203280171
 20
-151.6725000982566
 30
0.0
 11
-65.43996182426093
 21
-151.6725000982566
 31
0.0
  0
LINE
  5
195
  8
0
 10
-90.48797203280171
 20
-204.1725001322677
 30
0.0
 11
-90.48797203280171
 21
-151.6725000982566
 31
0.0
  0
LINE
  5
196
  8
0
 10
-100.9879720396038
 20
-151.6725000982566
 30
0.0
 11
-100.9879720396038
 21
-204.1725001322677
 31
0.0
  0
LINE
  5
197
  8
0
 10
-121.9879720532079
 20
-151.6725000982566
 30
0.0
 11
-100.9879720396038
 21
-151.6725000982566
 31
0.0
  0
LINE
  5
198
  8
0
 10
-121.9879720532079
 20
-151.6725000982566
 30
0.0
 11
-121.9879720532079
 21
-123.3033017563024
 31
0.0
  0
LINE
  5
199
  8
0
 10
-144.5365891846468
 20
-123.3033017563024
 30
0.0
 11
-121.9879720532079
 21
-123.3033017563024
 31
0.0
  0
LINE
  5
19A
  8
0
 10
-144.5365891846468
 20
-123.3033017563024
 30
0.0
 11
-144.5365891846468
 21
-66.48105510278452
 31
0.0
  0
LINE
  5
19B
  8
0
 10
-144.5365891846468
 20
-66.48105510278452
 30
0.0
 11
-176.0365892050534
 21
-66.48105510278452
 31
0.0
  0
LINE
  5
19C
  8
0
 10
-176.0365892050534
 20
-38.5315298200358
 30
0.0
 11
-176.0365892050534
 21
-66.48105510278452
 31
0.0
  0
LINE
  5
19D
  8
0
 10
-197.0365892186579
 20
-38.5315298200358
 30
0.0
 11
-176.0365892050534
 21
-38.5315298200358
 31
0.0
  0
LINE
  5
19E
  8
0
 10
-197.0365892186579
 20
-172.6725001118611
 30
0.0
 11
-197.0365892186579
 21
-38.5315298200358
 31
0.0
  0
LINE
  5
19F
  8
0
 10
-197.0365892186579
 20
-172.6725001118611
 30
0.0
 11
-176.0365892050534
 21
-172.6725001118611
 31
0.0
  0
LINE
  5
1A0
  8
0
 10
-176.0365892050534
 20
-141.1725000914545
 30
0.0
 11
-176.0365892050534
 21
-172.6725001118611
 31
0.0
  0
LINE
  5
1A1
  8
0
 10
-176.0365892050534
 20
-141.1725000914545
 30
0.0
 11
-134.0365891778447
 21
-141.1725000914545
 31
0.0
  0
LINE
  5
1A2
  8
0
 10
-134.0365891778447
 20
-141.1725000914545
 30
0.0
 11
-134.0365891778447
 21
-183.1725001186632
 31
0.0
  0
LINE
  5
1A3
  8
0
 10
-165.5365891982513
 20
-183.1725001186632
 30
0.0
 11
-134.0365891778447
 21
-183.1725001186632
 31
0.0
  0
LINE
  5
1A4
  8
0
 10
-165.5365891982513
 20
-204.1725001322677
 30
0.0
 11
-165.5365891982513
 21
-183.1725001186632
 31
0.0
  0
LINE
  5
1A5
  8
0
 10
-176.0365892050534
 20
-183.1725001186632
 30
0.0
 11
-176.0365892050534
 21
-204.1725001322685
 31
0.0
  0
LINE
  5
1A6
  8
0
 10
-207.53658922546
 20
-183.1725001186632
 30
0.0
 11
-176.0365892050534
 21
-183.1725001186632
 31
0.0
  0
LINE
  5
1A7
  8
0
 10
-207.5365892254603
 20
172.6725001118621
 30
0.0
 11
-176.0365892050537
 21
172.6725001118621
 31
0.0
  0
LINE
  5
1A8
  8
0
 10
-176.0365892050537
 20
172.6725001118621
 30
0.0
 11
-176.0365892050537
 21
204.1725001322687
 31
0.0
  0
LINE
  5
1A9
  8
0
 10
-176.0365892050537
 20
204.1725001322687
 30
0.0
 11
-207.5365892254603
 21
204.1725001322687
 31
0.0
  0
LINE
  5
1AA
  8
0
 10
-79.98797202599924
 20
-55.98105509598246
 30
0.0
 11
-79.98797202599924
 21
-10.5000000068016
 31
0.0
  0
LINE
  5
1AB
  8
0
 10
-79.98797202599924
 20
-55.98105509598246
 30
0.0
 11
-65.43996182426093
 21
-55.98105509598246
 31
0.0
  0
LINE
  5
1AC
  8
0
 10
-65.43996182426093
 20
-55.98105509598246
 30
0.0
 11
-65.43996182426093
 21
-28.03152981323373
 31
0.0
  0
LINE
  5
1AD
  8
0
 10
-65.43996182426093
 20
-28.03152981323373
 30
0.0
 11
-49.68996181405782
 21
-28.03152981323373
 31
0.0
  0
LINE
  5
1AE
  8
0
 10
-49.68996181405782
 20
-28.03152981323373
 30
0.0
 11
-49.68996181405782
 21
-10.5000000068016
 31
0.0
  0
LINE
  5
1AF
  8
0
 10
-49.68996181405782
 20
-10.5000000068016
 30
0.0
 11
-79.98797202599924
 21
-10.5000000068016
 31
0.0
  0
LINE
  5
1B0
  8
0
 10
54.93996181745922
 20
45.48105508918131
 30
0.0
 11
33.93996180385469
 21
45.48105508918131
 31
0.0
  0
LINE
  5
1B1
  8
0
 10
33.93996180385469
 20
45.48105508918131
 30
0.0
 11
33.93996180385469
 21
28.03152981323505
 31
0.0
  0
LINE
  5
1B2
  8
0
 10
54.93996181745922
 20
28.03152981323505
 30
0.0
 11
33.93996180385469
 21
28.03152981323505
 31
0.0
  0
LINE
  5
1B3
  8
0
 10
54.93996181745922
 20
28.03152981323505
 30
0.0
 11
54.93996181745922
 21
45.48105508918131
 31
0.0
  0
LINE
  5
1B4
  8
0
 10
165.5365891982512
 20
-172.6725001118611
 30
0.0
 11
165.5365891982512
 21
-151.6725000982565
 31
0.0
  0
LINE
  5
1B5
  8
0
 10
165.5365891982512
 20
-151.6725000982565
 30
0.0
 11
144.536589184647
 21
-151.6725000982565
 31
0.0
  0
LINE
  5
1B6
  8
0
 10
144.536589184647
 20
-172.6725001118611
 30
0.0
 11
144.536589184647
 21
-151.6725000982565
 31
0.0
  0
LINE
  5
1B7
  8
0
 10
165.5365891982512
 20
-172.6725001118611
 30
0.0
 11
144.536589184647
 21
-172.6725001118611
 31
0.0
  0
LINE
  5
1B8
  8
0
 10
-111.4879720464062
 20
102.3033017426991
 30
0.0
 11
-111.4879720464062
 21
81.30330172909456
 31
0.0
  0
LINE
  5
1B9
  8
0
 10
-111.4879720464062
 20
81.30330172909456
 30
0.0
 11
-90.48797203280168
 21
81.30330172909456
 31
0.0
  0
LINE
  5
1BA
  8
0
 10
-90.48797203280168
 20
102.3033017426991
 30
0.0
 11
-90.48797203280168
 21
81.30330172909456
 31
0.0
  0
LINE
  5
1BB
  8
0
 10
-111.4879720464062
 20
102.3033017426991
 30
0.0
 11
-90.48797203280168
 21
102.3033017426991
 31
0.0
  0
LINE
  5
1BC
  8
0
 10
-197.0365892186583
 20
17.53152980643298
 30
0.0
 11
-176.0365892050537
 21
17.53152980643298
 31
0.0
  0
LINE
  5
1BD
  8
0
 10
-197.0365892186583
 20
17.53152980643298
 30
0.0
 11
-197.0365892186583
 21
0.0000000000004738
 31
0.0
  0
LINE
  5
1BE
  8
0
 10
-197.0365892186583
 20
0.0000000000004738
 30
0.0
 11
-176.0365892050537
 21
0.0000000000004738
 31
0.0
  0
LINE
  5
1BF
  8
0
 10
-176.0365892050537
 20
0.0000000000004738
 30
0.0
 11
-176.0365892050537
 21
17.53152980643298
 31
0.0
  0
LINE
  5
1C0
  8
0
 10
207.5365892254603
 20
204.1725001322687
 30
0.0
 11
176.036589205054
 21
204.1725001322687
 31
0.0
  0
LINE
  5
1C1
  8
0
 10
176.036589205054
 20
172.6725001118621
 30
0.0
 11
176.036589205054
 21
204.1725001322687
 31
0.0
  0
LINE
  5
1C2
  8
0
 10
207.5365892254603
 20
172.6725001118621
 30
0.0
 11
176.036589205054
 21
172.6725001118621
 31
0.0
  0
LINE
  5
1C3
  8
0
 10
207.5365892254603
 20
172.6725001118621
 30
0.0
 11
207.5365892254603
 21
204.1725001322687
 31
0.0
  0
LINE
  5
1C4
  8
0
 10
-90.48797203280168
 20
31.50629244780733
 30
0.0
 11
-90.48797203280168
 21
0.0000000000004738
 31
0.0
  0
LINE
  5
1C5
  8
0
 10
-90.48797203280168
 20
31.50629244780733
 30
0.0
 11
-102.5365891574385
 21
31.50629244780733
 31
0.0
  0
LINE
  5
1C6
  8
0
 10
-102.5365891574385
 20
31.50629244780733
 30
0.0
 11
-102.5365891574385
 21
17.53152980643298
 31
0.0
  0
LINE
  5
1C7
  8
0
 10
-102.5365891574385
 20
17.53152980643298
 30
0.0
 11
-118.2865891676416
 21
17.53152980643298
 31
0.0
  0
LINE
  5
1C8
  8
0
 10
-118.2865891676416
 20
17.53152980643298
 30
0.0
 11
-118.2865891676416
 21
0.0000000000004738
 31
0.0
  0
LINE
  5
1C9
  8
0
 10
-118.2865891676416
 20
0.0000000000004738
 30
0.0
 11
-90.48797203280168
 21
0.0000000000004738
 31
0.0
  0
LINE
  5
1CA
  8
0
 10
54.9399618174596
 20
-38.53152982003579
 30
0.0
 11
33.93996180385508
 21
-38.53152982003579
 31
0.0
  0
LINE
  5
1CB
  8
0
 10
33.93996180385508
 20
-55.98105509598244
 30
0.0
 11
33.93996180385508
 21
-38.53152982003579
 31
0.0
  0
LINE
  5
1CC
  8
0
 10
54.9399618174596
 20
-55.98105509598244
 30
0.0
 11
33.93996180385508
 21
-55.98105509598244
 31
0.0
  0
LINE
  5
1CD
  8
0
 10
54.9399618174596
 20
-38.53152982003579
 30
0.0
 11
54.9399618174596
 21
-55.98105509598244
 31
0.0
  0
LINE
  5
1CE
  8
0
 10
111.4879720464061
 20
81.30330172909456
 30
0.0
 11
90.48797203280158
 21
81.30330172909456
 31
0.0
  0
LINE
  5
1CF
  8
0
 10
111.4879720464061
 20
102.3033017426991
 30
0.0
 11
111.4879720464061
 21
81.30330172909456
 31
0.0
  0
LINE
  5
1D0
  8
0
 10
111.4879720464061
 20
102.3033017426991
 30
0.0
 11
90.48797203280158
 21
102.3033017426991
 31
0.0
  0
LINE
  5
1D1
  8
0
 10
90.48797203280158
 20
102.3033017426991
 30
0.0
 11
90.48797203280158
 21
81.30330172909456
 31
0.0
  0
LINE
  5
1D2
  8
0
 10
111.4879720464069
 20
-141.1725000914545
 30
0.0
 11
65.43996182426167
 21
-141.1725000914545
 31
0.0
  0
LINE
  5
1D3
  8
0
 10
111.4879720464069
 20
-141.1725000914545
 30
0.0
 11
111.4879720464069
 21
-123.3033017563024
 31
0.0
  0
LINE
  5
1D4
  8
0
 10
111.4879720464069
 20
-123.3033017563024
 30
0.0
 11
79.9879720259999
 21
-123.3033017563024
 31
0.0
  0
LINE
  5
1D5
  8
0
 10
79.9879720259999
 20
-123.3033017563024
 30
0.0
 11
79.9879720259999
 21
-81.30330172909332
 31
0.0
  0
LINE
  5
1D6
  8
0
 10
121.9879720532082
 20
-81.30330172909332
 30
0.0
 11
79.9879720259999
 21
-81.30330172909332
 31
0.0
  0
LINE
  5
1D7
  8
0
 10
121.9879720532082
 20
-112.8033017495003
 30
0.0
 11
121.9879720532082
 21
-81.30330172909332
 31
0.0
  0
LINE
  5
1D8
  8
0
 10
134.0365891778457
 20
-112.8033017495003
 30
0.0
 11
121.9879720532082
 21
-112.8033017495003
 31
0.0
  0
LINE
  5
1D9
  8
0
 10
134.0365891778457
 20
-66.48105510278451
 30
0.0
 11
134.0365891778457
 21
-112.8033017495003
 31
0.0
  0
LINE
  5
1DA
  8
0
 10
134.0365891778457
 20
-66.48105510278451
 30
0.0
 11
102.5365891574387
 21
-66.48105510278451
 31
0.0
  0
LINE
  5
1DB
  8
0
 10
102.5365891574387
 20
-66.48105510278451
 30
0.0
 11
102.5365891574387
 21
-52.50629246141015
 31
0.0
  0
LINE
  5
1DC
  8
0
 10
102.5365891574387
 20
-52.50629246141015
 30
0.0
 11
90.48797203280196
 21
-52.50629246141015
 31
0.0
  0
LINE
  5
1DD
  8
0
 10
90.48797203280196
 20
-66.48105510278451
 30
0.0
 11
90.48797203280196
 21
-52.50629246141015
 31
0.0
  0
LINE
  5
1DE
  8
0
 10
65.43996182426167
 20
-66.48105510278451
 30
0.0
 11
90.48797203280196
 21
-66.48105510278451
 31
0.0
  0
LINE
  5
1DF
  8
0
 10
65.43996182426167
 20
-91.8033017358954
 30
0.0
 11
65.43996182426167
 21
-66.48105510278451
 31
0.0
  0
LINE
  5
1E0
  8
0
 10
65.43996182426167
 20
-91.8033017358954
 30
0.0
 11
49.68996181405856
 21
-91.8033017358954
 31
0.0
  0
LINE
  5
1E1
  8
0
 10
49.68996181405856
 20
-112.8033017495003
 30
0.0
 11
49.68996181405856
 21
-91.8033017358954
 31
0.0
  0
LINE
  5
1E2
  8
0
 10
65.43996182426167
 20
-112.8033017495003
 30
0.0
 11
49.68996181405856
 21
-112.8033017495003
 31
0.0
  0
LINE
  5
1E3
  8
0
 10
65.43996182426167
 20
-141.1725000914545
 30
0.0
 11
65.43996182426167
 21
-112.8033017495003
 31
0.0
  0
LINE
  5
1E4
  8
0
 10
-144.5365891846468
 20
-172.6725001118611
 30
0.0
 11
-144.5365891846468
 21
-151.6725000982566
 31
0.0
  0
LINE
  5
1E5
  8
0
 10
-165.5365891982513
 20
-151.6725000982566
 30
0.0
 11
-144.5365891846468
 21
-151.6725000982566
 31
0.0
  0
LINE
  5
1E6
  8
0
 10
-165.5365891982513
 20
-172.6725001118611
 30
0.0
 11
-165.5365891982513
 21
-151.6725000982566
 31
0.0
  0
LINE
  5
1E7
  8
0
 10
-165.5365891982513
 20
-172.6725001118611
 30
0.0
 11
-144.5365891846468
 21
-172.6725001118611
 31
0.0
  0
LINE
  5
1E8
  8
0
 10
-33.93996180385469
 20
45.48105508918131
 30
0.0
 11
-33.93996180385469
 21
28.03152981323505
 31
0.0
  0
LINE
  5
1E9
  8
0
 10
-54.93996181745922
 20
45.48105508918131
 30
0.0
 11
-33.93996180385469
 21
45.48105508918131
 31
0.0
  0
LINE
  5
1EA
  8
0
 10
-54.93996181745922
 20
28.03152981323505
 30
0.0
 11
-54.93996181745922
 21
45.48105508918131
 31
0.0
  0
LINE
  5
1EB
  8
0
 10
-54.93996181745922
 20
28.03152981323505
 30
0.0
 11
-33.93996180385469
 21
28.03152981323505
 31
0.0
  0
LINE
  5
1EC
  8
0
 10
134.0365891778449
 20
28.03152981323505
 30
0.0
 11
134.0365891778449
 21
45.48105508918131
 31
0.0
  0
LINE
  5
1ED
  8
0
 10
113.0365891642401
 20
45.48105508918131
 30
0.0
 11
113.0365891642401
 21
28.03152981323505
 31
0.0
  0
LINE
  5
1EE
  8
0
 10
176.036589205054
 20
0.0000000000004738
 30
0.0
 11
176.036589205054
 21
17.53152980643298
 31
0.0
  0
LINE
  5
1EF
  8
0
 10
176.036589205054
 20
0.0000000000004738
 30
0.0
 11
197.0365892186582
 21
0.0000000000004738
 31
0.0
  0
LINE
  5
1F0
  8
0
 10
197.0365892186582
 20
17.53152980643298
 30
0.0
 11
176.036589205054
 21
17.53152980643298
 31
0.0
  0
LINE
  5
1F1
  8
0
 10
-54.93996181745922
 20
130.6725000846534
 30
0.0
 11
-33.93996180385469
 21
130.6725000846534
 31
0.0
  0
LINE
  5
1F2
  8
0
 10
-54.93996181745922
 20
112.8033017495011
 30
0.0
 11
-54.93996181745922
 21
130.6725000846534
 31
0.0
  0
LINE
  5
1F3
  8
0
 10
-54.93996181745922
 20
112.8033017495011
 30
0.0
 11
-33.93996180385469
 21
112.8033017495011
 31
0.0
  0
LINE
  5
1F4
  8
0
 10
-33.93996180385469
 20
112.8033017495011
 30
0.0
 11
-33.93996180385469
 21
130.6725000846534
 31
0.0
  0
LINE
  5
1F5
  8
0
 10
-197.0365892186579
 20
-28.03152981323373
 30
0.0
 11
-176.0365892050534
 21
-28.03152981323373
 31
0.0
  0
LINE
  5
1F6
  8
0
 10
-176.0365892050534
 20
-10.5000000068016
 30
0.0
 11
-176.0365892050534
 21
-28.03152981323373
 31
0.0
  0
LINE
  5
1F7
  8
0
 10
-176.0365892050534
 20
-10.5000000068016
 30
0.0
 11
-197.0365892186583
 21
-10.5000000068016
 31
0.0
  0
LINE
  5
1F8
  8
0
 10
-197.0365892186579
 20
-28.03152981323373
 30
0.0
 11
-197.0365892186583
 21
-10.5000000068016
 31
0.0
  0
LINE
  5
1F9
  8
0
 10
-165.5365891982516
 20
45.48105508918131
 30
0.0
 11
-144.5365891846471
 21
45.48105508918131
 31
0.0
  0
LINE
  5
1FA
  8
0
 10
-165.5365891982516
 20
45.48105508918131
 30
0.0
 11
-165.5365891982516
 21
0.0000000000004738
 31
0.0
  0
LINE
  5
1FB
  8
0
 10
-165.5365891982516
 20
0.0000000000004738
 30
0.0
 11
-128.7865891744436
 21
0.0000000000004738
 31
0.0
  0
LINE
  5
1FC
  8
0
 10
-128.7865891744436
 20
0.0000000000004738
 30
0.0
 11
-128.7865891744436
 21
17.53152980643298
 31
0.0
  0
LINE
  5
1FD
  8
0
 10
-128.7865891744436
 20
17.53152980643298
 30
0.0
 11
-144.5365891846471
 21
17.53152980643298
 31
0.0
  0
LINE
  5
1FE
  8
0
 10
-144.5365891846471
 20
45.48105508918131
 30
0.0
 11
-144.5365891846471
 21
17.53152980643298
 31
0.0
  0
LINE
  5
1FF
  8
0
 10
-111.4879720464058
 20
-112.8033017495003
 30
0.0
 11
-111.4879720464058
 21
-91.80330173589542
 31
0.0
  0
LINE
  5
200
  8
0
 10
-111.4879720464058
 20
-112.8033017495003
 30
0.0
 11
-90.48797203280132
 21
-112.8033017495003
 31
0.0
  0
LINE
  5
201
  8
0
 10
-90.48797203280132
 20
-112.8033017495003
 30
0.0
 11
-90.48797203280132
 21
-91.80330173589542
 31
0.0
  0
LINE
  5
202
  8
0
 10
-111.4879720464058
 20
-91.80330173589542
 30
0.0
 11
-90.48797203280132
 21
-91.80330173589542
 31
0.0
  0
LINE
  5
203
  8
0
 10
165.5365891982512
 20
162.1725001050601
 30
0.0
 11
144.5365891846471
 21
162.1725001050601
 31
0.0
  0
LINE
  5
204
  8
0
 10
144.5365891846471
 20
162.1725001050601
 30
0.0
 11
144.5365891846471
 21
141.1725000914555
 31
0.0
  0
LINE
  5
205
  8
0
 10
165.5365891982512
 20
141.1725000914555
 30
0.0
 11
144.5365891846471
 21
141.1725000914555
 31
0.0
  0
LINE
  5
206
  8
0
 10
165.5365891982512
 20
162.1725001050601
 30
0.0
 11
165.5365891982512
 21
141.1725000914555
 31
0.0
  0
LINE
  5
207
  8
0
 10
54.9399618174596
 20
-151.6725000982565
 30
0.0
 11
5.250000003401604
 21
-151.6725000982565
 31
0.0
  0
LINE
  5
208
  8
0
 10
5.250000003401605
 20
-172.6725001118611
 30
0.0
 11
5.250000003401604
 21
-151.6725000982565
 31
0.0
  0
LINE
  5
209
  8
0
 10
54.9399618174596
 20
-172.6725001118611
 30
0.0
 11
5.250000003401605
 21
-172.6725001118611
 31
0.0
  0
LINE
  5
20A
  8
0
 10
54.9399618174596
 20
-151.6725000982565
 30
0.0
 11
54.9399618174596
 21
-172.6725001118611
 31
0.0
  0
LINE
  5
20B
  8
0
 10
54.9399618174596
 20
-141.1725000914545
 30
0.0
 11
33.93996180385508
 21
-141.1725000914545
 31
0.0
  0
LINE
  5
20C
  8
0
 10
54.9399618174596
 20
-123.3033017563024
 30
0.0
 11
54.9399618174596
 21
-141.1725000914545
 31
0.0
  0
LINE
  5
20D
  8
0
 10
54.9399618174596
 20
-123.3033017563024
 30
0.0
 11
33.93996180385508
 21
-123.3033017563024
 31
0.0
  0
LINE
  5
20E
  8
0
 10
33.93996180385508
 20
-123.3033017563024
 30
0.0
 11
33.93996180385508
 21
-141.1725000914545
 31
0.0
  0
LINE
  5
20F
  8
0
 10
197.0365892186582
 20
-28.03152981323372
 30
0.0
 11
176.036589205054
 21
-28.03152981323372
 31
0.0
  0
LINE
  5
210
  8
0
 10
197.0365892186582
 20
-10.5000000068016
 30
0.0
 11
176.036589205054
 21
-10.5000000068016
 31
0.0
  0
LINE
  5
211
  8
0
 10
176.036589205054
 20
-10.5000000068016
 30
0.0
 11
176.036589205054
 21
-28.03152981323372
 31
0.0
  0
LINE
  5
212
  8
0
 10
111.4879720464069
 20
-112.8033017495003
 30
0.0
 11
111.4879720464069
 21
-91.8033017358954
 31
0.0
  0
LINE
  5
213
  8
0
 10
111.4879720464069
 20
-91.8033017358954
 30
0.0
 11
90.48797203280196
 21
-91.8033017358954
 31
0.0
  0
LINE
  5
214
  8
0
 10
90.48797203280196
 20
-112.8033017495003
 30
0.0
 11
90.48797203280196
 21
-91.8033017358954
 31
0.0
  0
LINE
  5
215
  8
0
 10
111.4879720464069
 20
-112.8033017495003
 30
0.0
 11
90.48797203280196
 21
-112.8033017495003
 31
0.0
  0
LINE
  5
216
  8
0
 10
134.0365891778457
 20
-38.53152982003579
 30
0.0
 11
134.0365891778457
 21
-55.98105509598244
 31
0.0
  0
LINE
  5
217
  8
0
 10
113.0365891642401
 20
-55.98105509598244
 30
0.0
 11
113.0365891642401
 21
-38.53152982003579
 31
0.0
  0
LINE
  5
218
  8
0
 10
-33.93996180385432
 20
-123.3033017563024
 30
0.0
 11
-33.93996180385432
 21
-141.1725000914545
 31
0.0
  0
LINE
  5
219
  8
0
 10
-54.93996181745885
 20
-123.3033017563024
 30
0.0
 11
-33.93996180385432
 21
-123.3033017563024
 31
0.0
  0
LINE
  5
21A
  8
0
 10
-54.93996181745885
 20
-123.3033017563024
 30
0.0
 11
-54.93996181745885
 21
-141.1725000914545
 31
0.0
  0
LINE
  5
21B
  8
0
 10
-54.93996181745885
 20
-141.1725000914545
 30
0.0
 11
-33.93996180385432
 21
-141.1725000914545
 31
0.0
  0
LINE
  5
21C
  8
0
 10
-54.93996181745885
 20
-38.5315298200358
 30
0.0
 11
-54.93996181745885
 21
-55.98105509598246
 31
0.0
  0
LINE
  5
21D
  8
0
 10
-54.93996181745885
 20
-55.98105509598246
 30
0.0
 11
-33.93996180385432
 21
-55.98105509598244
 31
0.0
  0
LINE
  5
21E
  8
0
 10
-33.93996180385432
 20
-55.98105509598244
 30
0.0
 11
-33.93996180385432
 21
-38.53152982003579
 31
0.0
  0
LINE
  5
21F
  8
0
 10
-54.93996181745885
 20
-38.5315298200358
 30
0.0
 11
-33.93996180385432
 21
-38.53152982003579
 31
0.0
  0
LINE
  5
220
  8
0
 10
223.2865892356637
 20
219.9225001424718
 30
0.0
 11
223.2865892356637
 21
-219.9225001424717
 31
0.0
  0
LINE
  5
221
  8
0
 10
-100.9879720396041
 20
193.6725001254666
 30
0.0
 11
-165.5365891982516
 21
193.6725001254666
 31
0.0
  0
LINE
  5
222
  8
0
 10
165.5365891982512
 20
193.6725001254667
 30
0.0
 11
100.987972039604
 21
193.6725001254667
 31
0.0
  0
LINE
  5
223
  8
0
 10
-134.0365891778451
 20
28.03152981323505
 30
0.0
 11
-113.0365891642405
 21
28.03152981323505
 31
0.0
  0
LINE
  5
224
  8
0
 10
-113.0365891642405
 20
45.48105508918131
 30
0.0
 11
-134.0365891778451
 21
45.48105508918131
 31
0.0
  0
LINE
  5
225
  8
0
 10
-134.0365891778447
 20
-55.98105509598246
 30
0.0
 11
-113.0365891642402
 21
-55.98105509598246
 31
0.0
  0
LINE
  5
226
  8
0
 10
-113.0365891642402
 20
-38.5315298200358
 30
0.0
 11
-134.0365891778447
 21
-38.5315298200358
 31
0.0
  0
LINE
  5
227
  8
0
 10
-207.5365892254603
 20
172.6725001118621
 30
0.0
 11
-207.5365892254603
 21
204.1725001322687
 31
0.0
  0
LINE
  5
228
  8
0
 10
-165.5365891982513
 20
-204.1725001322677
 30
0.0
 11
-100.9879720396038
 21
-204.1725001322677
 31
0.0
  0
LINE
  5
229
  8
0
 10
100.987972039604
 20
-204.1725001322676
 30
0.0
 11
165.5365891982512
 21
-204.1725001322676
 31
0.0
  0
LINE
  5
22A
  8
0
 10
134.0365891778449
 20
45.48105508918131
 30
0.0
 11
113.0365891642401
 21
45.48105508918131
 31
0.0
  0
LINE
  5
22B
  8
0
 10
113.0365891642401
 20
28.03152981323505
 30
0.0
 11
134.0365891778449
 21
28.03152981323505
 31
0.0
  0
LINE
  5
22C
  8
0
 10
197.0365892186582
 20
17.53152980643298
 30
0.0
 11
197.0365892186582
 21
0.0000000000004738
 31
0.0
  0
LINE
  5
22D
  8
0
 10
197.0365892186582
 20
-10.5000000068016
 30
0.0
 11
197.0365892186582
 21
-28.03152981323372
 31
0.0
  0
LINE
  5
22E
  8
0
 10
113.0365891642401
 20
-55.98105509598244
 30
0.0
 11
134.0365891778457
 21
-55.98105509598244
 31
0.0
  0
LINE
  5
22F
  8
0
 10
134.0365891778457
 20
-38.53152982003579
 30
0.0
 11
113.0365891642401
 21
-38.53152982003579
 31
0.0
  0
ENDSEC
  0
EOF
